<?xml version="1.0" encoding="utf-8"?>
<!-- Generator: Adobe Illustrator 18.0.0, SVG Export Plug-In . SVG Version: 6.00 Build 0)  -->
<!DOCTYPE svg PUBLIC "-//W3C//DTD SVG 1.1//EN" "http://www.w3.org/Graphics/SVG/1.1/DTD/svg11.dtd">
<svg version="1.1" id="Layer_1" xmlns="http://www.w3.org/2000/svg" xmlns:xlink="http://www.w3.org/1999/xlink" x="0px" y="0px"
	 viewBox="0 0 261 46" enable-background="new 0 0 261 46" xml:space="preserve">
<path fill="#966CAF" d="M256,5.2c-1.2-1.2-5.1-5.2-17.4-5.2C238.6,0,22.5,0,22.4,0c-0.1,0-0.1,0-0.2,0C10,0,6.2,4.1,5,5.2
	C1.9,8.2-0.2,14,0,23c-0.2,8.8,1.9,14.8,5,17.7c1.2,1.2,5,5.2,17.3,5.2l0,0c-0.1,0,0.1,0,0.1,0c0.1,0,216.2,0,216.2,0
	c12.2,0,16.3-4,17.4-5.2c3.1-2.9,5.1-8.8,5-17.6c0,0,0-0.2,0-0.3C261.1,13.9,259.1,8.2,256,5.2z"/>
</svg>
