<?xml version="1.0" encoding="utf-8"?>
<!-- Generator: Adobe Illustrator 19.1.0, SVG Export Plug-In . SVG Version: 6.00 Build 0)  -->
<svg version="1.1" id="Layer_1" xmlns="http://www.w3.org/2000/svg" xmlns:xlink="http://www.w3.org/1999/xlink" x="0px" y="0px"
	 viewBox="0 0 171 49" style="enable-background:new 0 0 171 49;" xml:space="preserve">
<style type="text/css">
	.st0{fill-rule:evenodd;clip-rule:evenodd;fill:#8758A4;}
</style>
<g>
	<g>
		<path class="st0" d="M165.5,5.5C164.3,4.3,160,0,146.9,0c-0.1,0-123,0-123,0C10.7,0,6.6,4.3,5.4,5.5C2.1,8.7-0.2,14.9,0,24.4
			C-0.2,33.7,2,40,5.3,43.1c1.3,1.3,5.4,5.5,18.5,5.5l0,0c-0.1,0,0.1,0,0.2,0c0.1,0,122.8,0,122.8,0c13.1,0,17.4-4.2,18.7-5.5
			c3.3-3.1,5.5-9.4,5.3-18.6c0,0,0-0.2,0-0.3C171,14.7,168.8,8.6,165.5,5.5z"/>
	</g>
</g>
</svg>
