<?xml version="1.0" encoding="utf-8"?>
<!-- Generator: Adobe Illustrator 19.1.0, SVG Export Plug-In . SVG Version: 6.00 Build 0)  -->
<svg version="1.1" id="Layer_1" xmlns="http://www.w3.org/2000/svg" xmlns:xlink="http://www.w3.org/1999/xlink" x="0px" y="0px"
	 viewBox="0 0 15 17" style="enable-background:new 0 0 15 17;" xml:space="preserve">
<style type="text/css">
	.st0{fill:#4CC3CE;}
</style>
<g>
	<path class="st0" d="M14.3,8.7c-0.4,0-0.7,0.3-0.7,0.7c0,3.3-2.7,6-6.1,6c-3.4,0-6.1-2.7-6.1-6s2.7-6,6.1-6l0.7,0
		c0.2,0,0.5,0,0.8,0L8.1,4.2C7.8,4.4,7.8,4.9,8,5.2c0.1,0.2,0.3,0.2,0.5,0.2c0.2,0,0.3-0.1,0.5-0.2l2.3-2c0.2-0.1,0.2-0.3,0.2-0.5
		c0-0.2-0.1-0.4-0.2-0.5L9,0.2c-0.3-0.3-0.7-0.2-1,0.1C7.8,0.5,7.8,1,8.1,1.2L9.1,2C8.8,2,8.5,2,8.2,2l-0.7,0C3.4,2.1,0,5.3,0,9.4
		s3.4,7.3,7.5,7.3c4.1,0,7.5-3.3,7.5-7.3C15,9,14.7,8.7,14.3,8.7z"/>
</g>
</svg>
